<svg width="1920" height="1080" viewBox="0 0 1920 1080" xmlns="http://www.w3.org/2000/svg"><rect width="1920" height="1080" fill="#ffffff"/><path d="M338.2864219286968,1130C321.5438552115538,1177.1754137178084,297.35122040380446,1207.3401842716999,290.12414631311697,1249.526241153425C282.8970722224295,1291.71229803515,323.9644396216571,1364.7965731054605,294.9239773845718,1383.1163412903509C265.8835151474865,1401.4361094752412,168.66735062632063,1343.6399553506424,115.88137289060529,1359.4448502627677C63.09539515488996,1375.249745174893,23.092450896180264,1464.8932647370361,-21.79188902972022,1477.9457107631024C-66.6762289556207,1490.9981567891687,-119.94283418884143,1463.3472332780686,-153.4246666647976,1437.7595264191646C-186.90649914075377,1412.1718195602605,-190.9527699503939,1363.5926301735565,-222.68288388545716,1324.4194696096774C-254.41299782052042,1285.2463090457984,-334.0429276267637,1251.9516219802795,-343.8053502751771,1202.7205630358899C-353.5677729235905,1153.4895040915003,-311.81508485571635,1082.3897880509348,-281.2574197759377,1029.0331159433404C-250.69975469615903,975.6764438357458,-177.08559642582802,903.2085883439232,-160.45935979650508,882.5805303903226C-143.83312316718215,861.9524724367219,-206.94205182126197,930.0191417473075,-181.50000000000017,905.2647682217366C-156.05794817873837,880.5103946961658,-60.87061101736854,761.2061162089674,-7.8070488689343165,734.0542892368975C45.256513279499906,706.9024622648276,91.9262018483542,726.1427395211374,136.8813728906052,742.3538063893174C181.83654393285622,758.5648732574973,219.64094843034337,793.9673650364342,261.9239773845717,831.3206904459771C304.2070063388,868.67401585552,377.8524725252877,916.6938739209041,390.5795466159752,966.4737588465746C403.30662070666267,1016.253643772245,355.02898864583983,1082.8245862821916,338.2864219286968,1130C321.5438552115538,1177.1754137178084,297.35122040380446,1207.3401842716999,290.12414631311697,1249.526241153425" fill="#ab61f5"/></svg>